<mxfile host="app.diagrams.net" modified="2023-09-10T03:44:52.763Z" agent="Mozilla/5.0 (Windows NT 10.0; Win64; x64) AppleWebKit/537.36 (KHTML, like Gecko) Chrome/116.0.0.0 Safari/537.36" version="21.7.4" etag="QPq1ble22-6p3eWfaWuC" type="github">
  <diagram name="Trang-1" id="tIpe-mjN5WG493rYu0M6">
    <mxGraphModel>
      <root>
        <mxCell id="0" />
        <mxCell id="1" parent="0" />
      </root>
    </mxGraphModel>
  </diagram>
</mxfile>
